<?xml version="1.0" encoding="UTF-8" standalone="no"?>
<svg
   xmlns:dc="http://purl.org/dc/elements/1.1/"
   xmlns:cc="http://creativecommons.org/ns#"
   xmlns:rdf="http://www.w3.org/1999/02/22-rdf-syntax-ns#"
   xmlns:svg="http://www.w3.org/2000/svg"
   xmlns="http://www.w3.org/2000/svg"
   xmlns:sodipodi="http://sodipodi.sourceforge.net/DTD/sodipodi-0.dtd"
   xmlns:inkscape="http://www.inkscape.org/namespaces/inkscape"
   version="1.1"
   id="svg1257"
   width="751.03796"
   height="151.8019">
  <metadata
     id="metadata1263">
    <rdf:RDF>
      <cc:Work
         rdf:about="">
        <dc:format>image/svg+xml</dc:format>
        <dc:type
           rdf:resource="http://purl.org/dc/dcmitype/StillImage" />
      </cc:Work>
    </rdf:RDF>
  </metadata>
  <defs
     id="defs1261" />
  <sodipodi:namedview
     pagecolor="#ffffff"
     bordercolor="#666666"
     borderopacity="1"
     objecttolerance="10"
     gridtolerance="10"
     guidetolerance="10"
     inkscape:pageopacity="0"
     inkscape:pageshadow="2"
     inkscape:window-width="640"
     inkscape:window-height="480"
     id="namedview1259" />
  <inkscape:clipboard
     style="font-variation-settings:normal;opacity:1;vector-effect:none;fill:#333333;fill-opacity:1;stroke-width:2.82704504;stroke-linecap:butt;stroke-linejoin:miter;stroke-miterlimit:4;stroke-dasharray:none;stroke-dashoffset:0;stroke-opacity:1;stop-color:#000000;stop-opacity:1;stroke:none"
     min="628.87393,893.4022"
     max="1379.9119,1045.2041" />
  <g
     id="g2102"
     transform="matrix(3.7795276,0,0,3.7795276,-19.212012,-453.53614)"
     style="opacity:1">
    <path
       id="path2096"
       style="fill:#333333;stroke:none;stroke-width:1.04108"
       d="m 5.0893781,125.21389 v 17.38447 a 10.329782,10.329782 0 0 0 -0.0062,0.35502 10.329782,10.329782 0 0 0 10.3296009,10.3296 10.329782,10.329782 0 0 0 10.330119,-10.3296 10.329782,10.329782 0 0 0 -10.330119,-10.33012 10.329782,10.329782 0 0 0 -4.958352,1.26814 v -6.56084 z m 10.2929109,12.60234 a 5.1371298,5.1371298 0 0 1 0.03049,0 5.1371298,5.1371298 0 0 1 5.137156,5.13715 5.1371298,5.1371298 0 0 1 -5.137156,5.13715 5.1371298,5.1371298 0 0 1 -5.137152,-5.13715 5.1371298,5.1371298 0 0 1 5.106664,-5.13715 z" />
    <path
       id="path2098"
       style="fill:#333333;stroke:none;stroke-width:1.54174"
       d="m 28.285599,132.65568 h 5.365049 v 20.62609 h -5.365049 z" />
    <path
       id="path2100"
       style="fill:#333333;stroke:none;stroke-width:0.747989"
       d="m 28.276475,127.3295 5.374173,-2.11357 v 4.85499 h -5.365049 z"
       sodipodi:nodetypes="ccccc" />
  </g>
  <g
     aria-label="tecnologia"
     id="text857"
     style="font-style:normal;font-variant:normal;font-weight:normal;font-stretch:normal;font-size:34.5474px;line-height:1.25;font-family:'Poiret One';-inkscape-font-specification:'Poiret One';opacity:1;fill:#666666;fill-opacity:1;stroke:none;stroke-width:0.863687"
     transform="matrix(3.7795276,0,0,3.7795276,-514.87388,-997.40222)">
    <path
       d="m 194.15876,296.11435 v 0.96732 q -2.45286,0 -4.18023,-1.62372 -1.72737,-1.65828 -1.72737,-4.21479 v -16.16818 h 1.10552 v 6.28763 h 4.76754 v 0.96732 h -4.76754 v 8.91323 q 0,2.10739 1.38189,3.48929 1.41644,1.3819 3.42019,1.3819 z"
       style="font-style:normal;font-variant:normal;font-weight:normal;font-stretch:normal;font-family:'Poiret One';-inkscape-font-specification:'Poiret One';fill:#666666;stroke-width:0.863687"
       id="path898" />
    <path
       d="m 204.6957,297.28896 h -0.31093 q -3.282,0 -5.73487,-2.45287 -2.41832,-2.48741 -2.41832,-5.76941 0,-3.28201 2.41832,-5.66578 2.41832,-2.41832 5.9767,-2.41832 3.55838,0 6.11489,2.83289 l -10.84788,10.7097 q 2.24558,1.79646 4.31842,1.79646 2.07285,0 3.69657,-0.93278 1.65828,-0.96733 2.72925,-2.55651 v 1.76192 q -2.45287,2.6947 -5.94215,2.6947 z m -0.38003,-15.33905 q -2.72924,0 -4.87118,2.14194 -2.10739,2.10739 -2.10739,4.87118 0,2.7638 1.83101,4.83664 l 10.05329,-9.9842 q -2.14193,-1.86556 -4.90573,-1.86556 z"
       style="font-style:normal;font-variant:normal;font-weight:normal;font-stretch:normal;font-family:'Poiret One';-inkscape-font-specification:'Poiret One';fill:#666666;stroke-width:0.863687"
       id="path900" />
    <path
       d="m 221.55479,297.32351 h -0.31093 q -3.31655,0 -5.70032,-2.45287 -2.38377,-2.45287 -2.38377,-5.73487 0,-3.31655 2.41832,-5.70032 2.41832,-2.41832 5.94215,-2.41832 3.52384,0 6.01125,2.66015 v 1.76192 q -1.07097,-1.58918 -2.72924,-2.52196 -1.62373,-0.93278 -3.4202,-0.93278 -2.86743,0 -5.00937,2.14194 -2.10739,2.10739 -2.10739,5.04392 0,2.93653 2.10739,5.07847 2.14194,2.10739 5.00937,2.10739 1.79647,0 3.4202,-0.93278 1.65827,-0.93278 2.72924,-2.55651 v 1.79647 q -2.41832,2.66015 -5.9767,2.66015 z"
       style="font-style:normal;font-variant:normal;font-weight:normal;font-stretch:normal;font-family:'Poiret One';-inkscape-font-specification:'Poiret One';fill:#666666;stroke-width:0.863687"
       id="path902" />
    <path
       d="m 231.57353,296.87439 h -1.10551 v -15.54633 h 1.10551 v 3.14381 q 1.76192,-3.52383 6.01125,-3.52383 2.90198,0 4.87118,2.00375 1.96921,2.00375 1.96921,4.87118 v 9.05142 h -1.10552 v -9.05142 q 0,-2.38377 -1.69282,-4.14569 -1.65828,-1.76192 -4.04205,-1.76192 -2.38377,0 -4.21478,1.76192 -1.79647,1.76192 -1.79647,4.14569 z"
       style="font-style:normal;font-variant:normal;font-weight:normal;font-stretch:normal;font-family:'Poiret One';-inkscape-font-specification:'Poiret One';fill:#666666;stroke-width:0.863687"
       id="path904" />
    <path
       d="m 255.7912,297.25441 q -3.31655,0 -5.70032,-2.45286 -2.38377,-2.48742 -2.38377,-5.76942 0,-3.282 2.41831,-5.66577 2.41832,-2.41832 5.80397,-2.41832 3.42019,0 5.80396,2.41832 2.41832,2.38377 2.41832,5.70032 0,3.282 -2.34922,5.73487 -2.34923,2.45286 -5.70032,2.45286 z m 7.25495,-8.11864 q 0,-2.93653 -2.10739,-5.07847 -2.07284,-2.14194 -4.97482,-2.14194 -2.90199,0 -5.04392,2.17649 -2.1074,2.14194 -2.1074,5.04392 0,2.90198 2.1074,5.04392 2.14193,2.10739 5.04392,2.10739 2.93652,0 5.00937,-2.10739 2.07284,-2.14194 2.07284,-5.04392 z"
       style="font-style:normal;font-variant:normal;font-weight:normal;font-stretch:normal;font-family:'Poiret One';-inkscape-font-specification:'Poiret One';fill:#666666;stroke-width:0.863687"
       id="path906" />
    <path
       d="m 273.34126,296.21799 v 0.96733 q -2.45287,0 -4.18024,-1.62373 -1.72737,-1.65828 -1.72737,-4.21478 v -20.38297 h 1.10552 v 20.38297 q 0,2.10739 1.3819,3.48928 1.41644,1.3819 3.42019,1.3819 z"
       style="font-style:normal;font-variant:normal;font-weight:normal;font-stretch:normal;font-family:'Poiret One';-inkscape-font-specification:'Poiret One';fill:#666666;stroke-width:0.863687"
       id="path908" />
    <path
       d="m 281.94351,297.25441 q -3.31655,0 -5.70032,-2.45286 -2.38377,-2.48742 -2.38377,-5.76942 0,-3.282 2.41832,-5.66577 2.41832,-2.41832 5.80396,-2.41832 3.42019,0 5.80396,2.41832 2.41832,2.38377 2.41832,5.70032 0,3.282 -2.34922,5.73487 -2.34922,2.45286 -5.70032,2.45286 z m 7.25496,-8.11864 q 0,-2.93653 -2.1074,-5.07847 -2.07284,-2.14194 -4.97482,-2.14194 -2.90198,0 -5.04392,2.17649 -2.10739,2.14194 -2.10739,5.04392 0,2.90198 2.10739,5.04392 2.14194,2.10739 5.04392,2.10739 2.93653,0 5.00937,-2.10739 2.07285,-2.14194 2.07285,-5.04392 z"
       style="font-style:normal;font-variant:normal;font-weight:normal;font-stretch:normal;font-family:'Poiret One';-inkscape-font-specification:'Poiret One';fill:#666666;stroke-width:0.863687"
       id="path910" />
    <path
       d="m 308.02679,281.32806 h 1.10551 v 14.09534 q 0,4.0075 -2.21103,6.32217 -2.21103,2.31468 -5.80396,2.31468 -1.9692,0 -3.83476,-0.89823 -1.86556,-0.89824 -2.90199,-2.34923 v -1.58918 q 0.89824,1.65828 2.79834,2.7638 1.93466,1.10551 3.93841,1.10551 3.04017,0 4.97482,-2.07284 1.93466,-2.0383 1.93466,-5.59668 v -2.31468 q -0.93278,1.90011 -2.93653,3.04017 -2.00375,1.14007 -4.14569,1.14007 -3.38564,0 -5.80396,-2.38377 -2.41832,-2.41832 -2.41832,-5.76942 0,-3.3511 2.41832,-5.73487 2.41832,-2.41832 5.80396,-2.41832 2.24558,0 4.18024,1.14007 1.9692,1.10552 2.90198,3.07472 z m -14.19898,7.80771 q 0,2.93653 2.10739,5.07847 2.14194,2.10739 5.04392,2.10739 2.93653,0 5.00937,-2.10739 2.07285,-2.14194 2.07285,-5.07847 0,-2.93653 -2.07285,-5.04392 -2.07284,-2.14194 -5.00937,-2.14194 -2.90198,0 -5.04392,2.14194 -2.10739,2.10739 -2.10739,5.04392 z"
       style="font-style:normal;font-variant:normal;font-weight:normal;font-stretch:normal;font-family:'Poiret One';-inkscape-font-specification:'Poiret One';fill:#666666;stroke-width:0.863687"
       id="path912" />
    <path
       d="m 314.83262,281.36261 v 15.51178 h -1.10552 v -15.51178 z m -0.55276,-3.80022 q -1.00188,0 -1.00188,-0.93278 0,-0.93278 1.00188,-0.93278 1.00187,0 1.00187,0.93278 0,0.93278 -1.00187,0.93278 z"
       style="font-style:normal;font-variant:normal;font-weight:normal;font-stretch:normal;font-family:'Poiret One';-inkscape-font-specification:'Poiret One';fill:#666666;stroke-width:0.863687"
       id="path914" />
    <path
       d="m 334.93918,281.32806 v 15.54633 h -1.10552 v -3.86931 q -0.96732,1.9692 -2.90198,3.10927 -1.93465,1.14006 -4.14569,1.14006 -3.38564,0 -5.80396,-2.38377 -2.41832,-2.41832 -2.41832,-5.76942 0,-3.35109 2.41832,-5.73486 2.41832,-2.41832 5.80396,-2.41832 2.21104,0 4.21479,1.17461 2.03829,1.17461 2.83288,3.10927 v -3.90386 z m -15.26995,7.80771 q 0,2.90198 2.10739,5.04392 2.14194,2.10739 5.04392,2.10739 2.93653,0 5.00937,-2.10739 2.07285,-2.14194 2.07285,-5.04392 0,-2.93653 -2.10739,-5.07847 -2.07285,-2.14194 -4.97483,-2.14194 -2.90198,0 -5.04392,2.17649 -2.10739,2.14194 -2.10739,5.04392 z"
       style="font-style:normal;font-variant:normal;font-weight:normal;font-stretch:normal;font-family:'Poiret One';-inkscape-font-specification:'Poiret One';fill:#666666;stroke-width:0.863687"
       id="path916" />
  </g>
  <path
     id="rect895"
     style="opacity:1;fill:#b3b3b3;stroke-width:33.2762"
     d="m 170.21478,0 h 4.33557 l -31.99997,146.33617 h -4.33557 z"
     sodipodi:nodetypes="ccccc" />
</svg>
